# xmcd
#
# Track frame offsets: 
#        150
#        15729
#        29872
#        44336
#        61750
#        80240
#        97579
#        116939
#        137849
#        153468
#        167214
#        183530
#        199291
#        212962
#        228901
#
# Disc length: 3255 seconds
#
# Revision: 2
# Processed by: cddbd v1.5.2PL0 Copyright (c) Steve Scherf et al.
# Submitted via: ExactAudioCopy v1.3
#
DISCID=d90cb50f
DTITLE=Various Artist - Blues Revue sampler, Jun-Jul 2009
DYEAR=2009
DGENRE=Blues
TTITLE0=Shemekia Copeland - Born a penny
TTITLE1=Joe Bonamassa - Lonesome road blues
TTITLE2=Brad Vickers - I don't want to
TTITLE3=Fiona Boyes - Howlin' at your door
TTITLE4=Phil Berkowitz - Straight up
TTITLE5=Michelle Malone - Feather in a hurricane
TTITLE6=Tom Rigney - Rigo's blues
TTITLE7=Dave Gross - Don't take too long
TTITLE8=Kolvane - Backslide
TTITLE9=Anni Piper - Texas hold 'em
TTITLE10=Glen Terry - Sugar blues express
TTITLE11=Washboard Jo - Main'ance man
TTITLE12=Shane Dwight - Bad news morning
TTITLE13=Commander Cody - Seven eleven
TTITLE14=Duke Robillard - Stomp the blues tonight
EXTD=
EXTT0=
EXTT1=
EXTT2=
EXTT3=
EXTT4=
EXTT5=
EXTT6=
EXTT7=
EXTT8=
EXTT9=
EXTT10=
EXTT11=
EXTT12=
EXTT13=
EXTT14=
PLAYORDER=
